G04 #@! TF.GenerationSoftware,KiCad,Pcbnew,(6.0.7)*
G04 #@! TF.CreationDate,2022-11-12T22:44:30+08:00*
G04 #@! TF.ProjectId,KP08_keypad,4b503038-5f6b-4657-9970-61642e6b6963,1.0*
G04 #@! TF.SameCoordinates,Original*
G04 #@! TF.FileFunction,Soldermask,Top*
G04 #@! TF.FilePolarity,Negative*
%FSLAX46Y46*%
G04 Gerber Fmt 4.6, Leading zero omitted, Abs format (unit mm)*
G04 Created by KiCad (PCBNEW (6.0.7)) date 2022-11-12 22:44:30*
%MOMM*%
%LPD*%
G01*
G04 APERTURE LIST*
G04 Aperture macros list*
%AMOutline4P*
0 Free polygon, 4 corners , with rotation*
0 The origin of the aperture is its center*
0 number of corners: always 4*
0 $1 to $8 corner X, Y*
0 $9 Rotation angle, in degrees counterclockwise*
0 create outline with 4 corners*
4,1,4,$1,$2,$3,$4,$5,$6,$7,$8,$1,$2,$9*%
G04 Aperture macros list end*
%ADD10C,1.700000*%
%ADD11C,3.000000*%
%ADD12C,4.000000*%
%ADD13C,2.500000*%
%ADD14R,2.500000X2.550000*%
%ADD15R,1.300000X1.550000*%
%ADD16R,1.700000X1.700000*%
%ADD17O,1.700000X1.700000*%
%ADD18C,2.200000*%
%ADD19R,1.000000X0.800000*%
%ADD20C,0.900000*%
%ADD21R,0.700000X1.500000*%
%ADD22O,1.200000X1.750000*%
%ADD23Outline4P,-0.600000X-0.875000X0.600000X-0.875000X0.600000X0.875000X-0.600000X0.875000X180.000000*%
G04 APERTURE END LIST*
D10*
X176530000Y-76200000D03*
D11*
X167640000Y-78740000D03*
D10*
X166370000Y-76200000D03*
D11*
X168910000Y-81280000D03*
X175260000Y-78740000D03*
X173990000Y-81280000D03*
D12*
X171450000Y-76200000D03*
D13*
X167640000Y-73660000D03*
X168910000Y-71120000D03*
D14*
X163890000Y-78740000D03*
D13*
X175260000Y-73660000D03*
X173990000Y-71120000D03*
D14*
X177740000Y-81280000D03*
D11*
X116840000Y-81280000D03*
D10*
X109220000Y-76200000D03*
D11*
X118110000Y-78740000D03*
D12*
X114300000Y-76200000D03*
D10*
X119380000Y-76200000D03*
D11*
X111760000Y-81280000D03*
X110490000Y-78740000D03*
D14*
X106740000Y-78740000D03*
D13*
X111760000Y-71120000D03*
X110490000Y-73660000D03*
D14*
X120590000Y-81280000D03*
D13*
X118110000Y-73660000D03*
X116840000Y-71120000D03*
D15*
X96230000Y-94450000D03*
X96230000Y-102400000D03*
X91730000Y-94450000D03*
X91730000Y-102400000D03*
D10*
X176530000Y-95250000D03*
D11*
X168910000Y-100330000D03*
X175260000Y-97790000D03*
X167640000Y-97790000D03*
X173990000Y-100330000D03*
D12*
X171450000Y-95250000D03*
D10*
X166370000Y-95250000D03*
D13*
X167640000Y-92710000D03*
X168910000Y-90170000D03*
D14*
X163890000Y-97790000D03*
X177740000Y-100330000D03*
D13*
X173990000Y-90170000D03*
X175260000Y-92710000D03*
D16*
X86360000Y-70485000D03*
D17*
X86360000Y-73025000D03*
X86360000Y-75565000D03*
X86360000Y-78105000D03*
X86360000Y-80645000D03*
X86360000Y-83185000D03*
X86360000Y-85725000D03*
X86360000Y-88265000D03*
X86360000Y-90805000D03*
X86360000Y-93345000D03*
X86360000Y-95885000D03*
X86360000Y-98425000D03*
X86360000Y-100965000D03*
D18*
X93980000Y-91440000D03*
D11*
X135890000Y-81280000D03*
D12*
X133350000Y-76200000D03*
D11*
X137160000Y-78740000D03*
X129540000Y-78740000D03*
D10*
X138430000Y-76200000D03*
X128270000Y-76200000D03*
D11*
X130810000Y-81280000D03*
D14*
X125790000Y-78740000D03*
D13*
X129540000Y-73660000D03*
X130810000Y-71120000D03*
X135890000Y-71120000D03*
X137160000Y-73660000D03*
D14*
X139640000Y-81280000D03*
D16*
X101600000Y-70485000D03*
D17*
X101600000Y-73025000D03*
X101600000Y-75565000D03*
X101600000Y-78105000D03*
X101600000Y-80645000D03*
X101600000Y-83185000D03*
X101600000Y-85725000D03*
X101600000Y-88265000D03*
X101600000Y-90805000D03*
X101600000Y-93345000D03*
X101600000Y-95885000D03*
X101600000Y-98425000D03*
X101600000Y-100965000D03*
D18*
X161925000Y-85725000D03*
D12*
X133350000Y-95250000D03*
D11*
X137160000Y-97790000D03*
X130810000Y-100330000D03*
X129540000Y-97790000D03*
D10*
X138430000Y-95250000D03*
X128270000Y-95250000D03*
D11*
X135890000Y-100330000D03*
D13*
X130810000Y-90170000D03*
X129540000Y-92710000D03*
D14*
X125790000Y-97790000D03*
D13*
X135890000Y-90170000D03*
X137160000Y-92710000D03*
D14*
X139640000Y-100330000D03*
D18*
X161925000Y-103505000D03*
X161925000Y-67945000D03*
D11*
X154940000Y-100330000D03*
X149860000Y-100330000D03*
X156210000Y-97790000D03*
D10*
X157480000Y-95250000D03*
D11*
X148590000Y-97790000D03*
D12*
X152400000Y-95250000D03*
D10*
X147320000Y-95250000D03*
D14*
X144840000Y-97790000D03*
D13*
X149860000Y-90170000D03*
X148590000Y-92710000D03*
X154940000Y-90170000D03*
X156210000Y-92710000D03*
D14*
X158690000Y-100330000D03*
D10*
X157480000Y-76200000D03*
D11*
X156210000Y-78740000D03*
X149860000Y-81280000D03*
D10*
X147320000Y-76200000D03*
D11*
X148590000Y-78740000D03*
X154940000Y-81280000D03*
D12*
X152400000Y-76200000D03*
D14*
X144840000Y-78740000D03*
D13*
X149860000Y-71120000D03*
X148590000Y-73660000D03*
X156210000Y-73660000D03*
D14*
X158690000Y-81280000D03*
D13*
X154940000Y-71120000D03*
D18*
X123825000Y-85725000D03*
D11*
X111760000Y-100330000D03*
D10*
X119380000Y-95250000D03*
D12*
X114300000Y-95250000D03*
D10*
X109220000Y-95250000D03*
D11*
X116840000Y-100330000D03*
X110490000Y-97790000D03*
X118110000Y-97790000D03*
D13*
X111760000Y-90170000D03*
D14*
X106740000Y-97790000D03*
D13*
X110490000Y-92710000D03*
D14*
X120590000Y-100330000D03*
D13*
X118110000Y-92710000D03*
X116840000Y-90170000D03*
D18*
X123825000Y-67945000D03*
D19*
X97630000Y-68006000D03*
X90330000Y-68006000D03*
X90330000Y-70216000D03*
D20*
X95480000Y-69106000D03*
X92480000Y-69106000D03*
D19*
X97630000Y-70216000D03*
D21*
X96230000Y-70866000D03*
X93230000Y-70866000D03*
X91730000Y-70866000D03*
D20*
X92480000Y-69106000D03*
X95480000Y-69106000D03*
D22*
X95980000Y-77555000D03*
D23*
X93980000Y-77555000D03*
D22*
X91980000Y-77555000D03*
M02*
