G04 #@! TF.GenerationSoftware,KiCad,Pcbnew,(6.0.7)*
G04 #@! TF.CreationDate,2022-11-12T22:44:30+08:00*
G04 #@! TF.ProjectId,KP08_keypad,4b503038-5f6b-4657-9970-61642e6b6963,1.0*
G04 #@! TF.SameCoordinates,Original*
G04 #@! TF.FileFunction,Legend,Bot*
G04 #@! TF.FilePolarity,Positive*
%FSLAX46Y46*%
G04 Gerber Fmt 4.6, Leading zero omitted, Abs format (unit mm)*
G04 Created by KiCad (PCBNEW (6.0.7)) date 2022-11-12 22:44:30*
%MOMM*%
%LPD*%
G01*
G04 APERTURE LIST*
G04 Aperture macros list*
%AMOutline4P*
0 Free polygon, 4 corners , with rotation*
0 The origin of the aperture is its center*
0 number of corners: always 4*
0 $1 to $8 corner X, Y*
0 $9 Rotation angle, in degrees counterclockwise*
0 create outline with 4 corners*
4,1,4,$1,$2,$3,$4,$5,$6,$7,$8,$1,$2,$9*%
G04 Aperture macros list end*
%ADD10C,0.150000*%
%ADD11C,0.140000*%
%ADD12C,0.120000*%
%ADD13C,1.700000*%
%ADD14C,3.000000*%
%ADD15C,4.000000*%
%ADD16C,2.500000*%
%ADD17R,2.500000X2.550000*%
%ADD18R,1.700000X1.700000*%
%ADD19O,1.700000X1.700000*%
%ADD20C,2.200000*%
%ADD21C,0.900000*%
%ADD22R,1.000000X0.800000*%
%ADD23R,0.700000X1.500000*%
%ADD24R,1.300000X1.550000*%
%ADD25O,1.200000X1.750000*%
%ADD26Outline4P,-0.600000X-0.875000X0.600000X-0.875000X0.600000X0.875000X-0.600000X0.875000X180.000000*%
G04 APERTURE END LIST*
D10*
X97646666Y-86812380D02*
X97646666Y-85812380D01*
X97075238Y-86812380D02*
X97503809Y-86240952D01*
X97075238Y-85812380D02*
X97646666Y-86383809D01*
X96646666Y-86812380D02*
X96646666Y-85812380D01*
X96265714Y-85812380D01*
X96170476Y-85860000D01*
X96122857Y-85907619D01*
X96075238Y-86002857D01*
X96075238Y-86145714D01*
X96122857Y-86240952D01*
X96170476Y-86288571D01*
X96265714Y-86336190D01*
X96646666Y-86336190D01*
X95456190Y-85812380D02*
X95360952Y-85812380D01*
X95265714Y-85860000D01*
X95218095Y-85907619D01*
X95170476Y-86002857D01*
X95122857Y-86193333D01*
X95122857Y-86431428D01*
X95170476Y-86621904D01*
X95218095Y-86717142D01*
X95265714Y-86764761D01*
X95360952Y-86812380D01*
X95456190Y-86812380D01*
X95551428Y-86764761D01*
X95599047Y-86717142D01*
X95646666Y-86621904D01*
X95694285Y-86431428D01*
X95694285Y-86193333D01*
X95646666Y-86002857D01*
X95599047Y-85907619D01*
X95551428Y-85860000D01*
X95456190Y-85812380D01*
X94551428Y-86240952D02*
X94646666Y-86193333D01*
X94694285Y-86145714D01*
X94741904Y-86050476D01*
X94741904Y-86002857D01*
X94694285Y-85907619D01*
X94646666Y-85860000D01*
X94551428Y-85812380D01*
X94360952Y-85812380D01*
X94265714Y-85860000D01*
X94218095Y-85907619D01*
X94170476Y-86002857D01*
X94170476Y-86050476D01*
X94218095Y-86145714D01*
X94265714Y-86193333D01*
X94360952Y-86240952D01*
X94551428Y-86240952D01*
X94646666Y-86288571D01*
X94694285Y-86336190D01*
X94741904Y-86431428D01*
X94741904Y-86621904D01*
X94694285Y-86717142D01*
X94646666Y-86764761D01*
X94551428Y-86812380D01*
X94360952Y-86812380D01*
X94265714Y-86764761D01*
X94218095Y-86717142D01*
X94170476Y-86621904D01*
X94170476Y-86431428D01*
X94218095Y-86336190D01*
X94265714Y-86288571D01*
X94360952Y-86240952D01*
X93075238Y-86145714D02*
X92837142Y-86812380D01*
X92599047Y-86145714D01*
X91694285Y-86812380D02*
X92265714Y-86812380D01*
X91980000Y-86812380D02*
X91980000Y-85812380D01*
X92075238Y-85955238D01*
X92170476Y-86050476D01*
X92265714Y-86098095D01*
X91265714Y-86717142D02*
X91218095Y-86764761D01*
X91265714Y-86812380D01*
X91313333Y-86764761D01*
X91265714Y-86717142D01*
X91265714Y-86812380D01*
X90599047Y-85812380D02*
X90503809Y-85812380D01*
X90408571Y-85860000D01*
X90360952Y-85907619D01*
X90313333Y-86002857D01*
X90265714Y-86193333D01*
X90265714Y-86431428D01*
X90313333Y-86621904D01*
X90360952Y-86717142D01*
X90408571Y-86764761D01*
X90503809Y-86812380D01*
X90599047Y-86812380D01*
X90694285Y-86764761D01*
X90741904Y-86717142D01*
X90789523Y-86621904D01*
X90837142Y-86431428D01*
X90837142Y-86193333D01*
X90789523Y-86002857D01*
X90741904Y-85907619D01*
X90694285Y-85860000D01*
X90599047Y-85812380D01*
X172783333Y-73604761D02*
X172640476Y-73652380D01*
X172402380Y-73652380D01*
X172307142Y-73604761D01*
X172259523Y-73557142D01*
X172211904Y-73461904D01*
X172211904Y-73366666D01*
X172259523Y-73271428D01*
X172307142Y-73223809D01*
X172402380Y-73176190D01*
X172592857Y-73128571D01*
X172688095Y-73080952D01*
X172735714Y-73033333D01*
X172783333Y-72938095D01*
X172783333Y-72842857D01*
X172735714Y-72747619D01*
X172688095Y-72700000D01*
X172592857Y-72652380D01*
X172354761Y-72652380D01*
X172211904Y-72700000D01*
X171878571Y-72652380D02*
X171640476Y-73652380D01*
X171450000Y-72938095D01*
X171259523Y-73652380D01*
X171021428Y-72652380D01*
X170211904Y-72985714D02*
X170211904Y-73652380D01*
X170450000Y-72604761D02*
X170688095Y-73319047D01*
X170069047Y-73319047D01*
X115633333Y-73604761D02*
X115490476Y-73652380D01*
X115252380Y-73652380D01*
X115157142Y-73604761D01*
X115109523Y-73557142D01*
X115061904Y-73461904D01*
X115061904Y-73366666D01*
X115109523Y-73271428D01*
X115157142Y-73223809D01*
X115252380Y-73176190D01*
X115442857Y-73128571D01*
X115538095Y-73080952D01*
X115585714Y-73033333D01*
X115633333Y-72938095D01*
X115633333Y-72842857D01*
X115585714Y-72747619D01*
X115538095Y-72700000D01*
X115442857Y-72652380D01*
X115204761Y-72652380D01*
X115061904Y-72700000D01*
X114728571Y-72652380D02*
X114490476Y-73652380D01*
X114300000Y-72938095D01*
X114109523Y-73652380D01*
X113871428Y-72652380D01*
X112966666Y-73652380D02*
X113538095Y-73652380D01*
X113252380Y-73652380D02*
X113252380Y-72652380D01*
X113347619Y-72795238D01*
X113442857Y-72890476D01*
X113538095Y-72938095D01*
X172783333Y-92654761D02*
X172640476Y-92702380D01*
X172402380Y-92702380D01*
X172307142Y-92654761D01*
X172259523Y-92607142D01*
X172211904Y-92511904D01*
X172211904Y-92416666D01*
X172259523Y-92321428D01*
X172307142Y-92273809D01*
X172402380Y-92226190D01*
X172592857Y-92178571D01*
X172688095Y-92130952D01*
X172735714Y-92083333D01*
X172783333Y-91988095D01*
X172783333Y-91892857D01*
X172735714Y-91797619D01*
X172688095Y-91750000D01*
X172592857Y-91702380D01*
X172354761Y-91702380D01*
X172211904Y-91750000D01*
X171878571Y-91702380D02*
X171640476Y-92702380D01*
X171450000Y-91988095D01*
X171259523Y-92702380D01*
X171021428Y-91702380D01*
X170497619Y-92130952D02*
X170592857Y-92083333D01*
X170640476Y-92035714D01*
X170688095Y-91940476D01*
X170688095Y-91892857D01*
X170640476Y-91797619D01*
X170592857Y-91750000D01*
X170497619Y-91702380D01*
X170307142Y-91702380D01*
X170211904Y-91750000D01*
X170164285Y-91797619D01*
X170116666Y-91892857D01*
X170116666Y-91940476D01*
X170164285Y-92035714D01*
X170211904Y-92083333D01*
X170307142Y-92130952D01*
X170497619Y-92130952D01*
X170592857Y-92178571D01*
X170640476Y-92226190D01*
X170688095Y-92321428D01*
X170688095Y-92511904D01*
X170640476Y-92607142D01*
X170592857Y-92654761D01*
X170497619Y-92702380D01*
X170307142Y-92702380D01*
X170211904Y-92654761D01*
X170164285Y-92607142D01*
X170116666Y-92511904D01*
X170116666Y-92321428D01*
X170164285Y-92226190D01*
X170211904Y-92178571D01*
X170307142Y-92130952D01*
X134683333Y-73604761D02*
X134540476Y-73652380D01*
X134302380Y-73652380D01*
X134207142Y-73604761D01*
X134159523Y-73557142D01*
X134111904Y-73461904D01*
X134111904Y-73366666D01*
X134159523Y-73271428D01*
X134207142Y-73223809D01*
X134302380Y-73176190D01*
X134492857Y-73128571D01*
X134588095Y-73080952D01*
X134635714Y-73033333D01*
X134683333Y-72938095D01*
X134683333Y-72842857D01*
X134635714Y-72747619D01*
X134588095Y-72700000D01*
X134492857Y-72652380D01*
X134254761Y-72652380D01*
X134111904Y-72700000D01*
X133778571Y-72652380D02*
X133540476Y-73652380D01*
X133350000Y-72938095D01*
X133159523Y-73652380D01*
X132921428Y-72652380D01*
X132588095Y-72747619D02*
X132540476Y-72700000D01*
X132445238Y-72652380D01*
X132207142Y-72652380D01*
X132111904Y-72700000D01*
X132064285Y-72747619D01*
X132016666Y-72842857D01*
X132016666Y-72938095D01*
X132064285Y-73080952D01*
X132635714Y-73652380D01*
X132016666Y-73652380D01*
X134683333Y-92654761D02*
X134540476Y-92702380D01*
X134302380Y-92702380D01*
X134207142Y-92654761D01*
X134159523Y-92607142D01*
X134111904Y-92511904D01*
X134111904Y-92416666D01*
X134159523Y-92321428D01*
X134207142Y-92273809D01*
X134302380Y-92226190D01*
X134492857Y-92178571D01*
X134588095Y-92130952D01*
X134635714Y-92083333D01*
X134683333Y-91988095D01*
X134683333Y-91892857D01*
X134635714Y-91797619D01*
X134588095Y-91750000D01*
X134492857Y-91702380D01*
X134254761Y-91702380D01*
X134111904Y-91750000D01*
X133778571Y-91702380D02*
X133540476Y-92702380D01*
X133350000Y-91988095D01*
X133159523Y-92702380D01*
X132921428Y-91702380D01*
X132111904Y-91702380D02*
X132302380Y-91702380D01*
X132397619Y-91750000D01*
X132445238Y-91797619D01*
X132540476Y-91940476D01*
X132588095Y-92130952D01*
X132588095Y-92511904D01*
X132540476Y-92607142D01*
X132492857Y-92654761D01*
X132397619Y-92702380D01*
X132207142Y-92702380D01*
X132111904Y-92654761D01*
X132064285Y-92607142D01*
X132016666Y-92511904D01*
X132016666Y-92273809D01*
X132064285Y-92178571D01*
X132111904Y-92130952D01*
X132207142Y-92083333D01*
X132397619Y-92083333D01*
X132492857Y-92130952D01*
X132540476Y-92178571D01*
X132588095Y-92273809D01*
X153733333Y-92654761D02*
X153590476Y-92702380D01*
X153352380Y-92702380D01*
X153257142Y-92654761D01*
X153209523Y-92607142D01*
X153161904Y-92511904D01*
X153161904Y-92416666D01*
X153209523Y-92321428D01*
X153257142Y-92273809D01*
X153352380Y-92226190D01*
X153542857Y-92178571D01*
X153638095Y-92130952D01*
X153685714Y-92083333D01*
X153733333Y-91988095D01*
X153733333Y-91892857D01*
X153685714Y-91797619D01*
X153638095Y-91750000D01*
X153542857Y-91702380D01*
X153304761Y-91702380D01*
X153161904Y-91750000D01*
X152828571Y-91702380D02*
X152590476Y-92702380D01*
X152400000Y-91988095D01*
X152209523Y-92702380D01*
X151971428Y-91702380D01*
X151685714Y-91702380D02*
X151019047Y-91702380D01*
X151447619Y-92702380D01*
X153733333Y-73604761D02*
X153590476Y-73652380D01*
X153352380Y-73652380D01*
X153257142Y-73604761D01*
X153209523Y-73557142D01*
X153161904Y-73461904D01*
X153161904Y-73366666D01*
X153209523Y-73271428D01*
X153257142Y-73223809D01*
X153352380Y-73176190D01*
X153542857Y-73128571D01*
X153638095Y-73080952D01*
X153685714Y-73033333D01*
X153733333Y-72938095D01*
X153733333Y-72842857D01*
X153685714Y-72747619D01*
X153638095Y-72700000D01*
X153542857Y-72652380D01*
X153304761Y-72652380D01*
X153161904Y-72700000D01*
X152828571Y-72652380D02*
X152590476Y-73652380D01*
X152400000Y-72938095D01*
X152209523Y-73652380D01*
X151971428Y-72652380D01*
X151685714Y-72652380D02*
X151066666Y-72652380D01*
X151400000Y-73033333D01*
X151257142Y-73033333D01*
X151161904Y-73080952D01*
X151114285Y-73128571D01*
X151066666Y-73223809D01*
X151066666Y-73461904D01*
X151114285Y-73557142D01*
X151161904Y-73604761D01*
X151257142Y-73652380D01*
X151542857Y-73652380D01*
X151638095Y-73604761D01*
X151685714Y-73557142D01*
X115633333Y-92654761D02*
X115490476Y-92702380D01*
X115252380Y-92702380D01*
X115157142Y-92654761D01*
X115109523Y-92607142D01*
X115061904Y-92511904D01*
X115061904Y-92416666D01*
X115109523Y-92321428D01*
X115157142Y-92273809D01*
X115252380Y-92226190D01*
X115442857Y-92178571D01*
X115538095Y-92130952D01*
X115585714Y-92083333D01*
X115633333Y-91988095D01*
X115633333Y-91892857D01*
X115585714Y-91797619D01*
X115538095Y-91750000D01*
X115442857Y-91702380D01*
X115204761Y-91702380D01*
X115061904Y-91750000D01*
X114728571Y-91702380D02*
X114490476Y-92702380D01*
X114300000Y-91988095D01*
X114109523Y-92702380D01*
X113871428Y-91702380D01*
X113014285Y-91702380D02*
X113490476Y-91702380D01*
X113538095Y-92178571D01*
X113490476Y-92130952D01*
X113395238Y-92083333D01*
X113157142Y-92083333D01*
X113061904Y-92130952D01*
X113014285Y-92178571D01*
X112966666Y-92273809D01*
X112966666Y-92511904D01*
X113014285Y-92607142D01*
X113061904Y-92654761D01*
X113157142Y-92702380D01*
X113395238Y-92702380D01*
X113490476Y-92654761D01*
X113538095Y-92607142D01*
X99464761Y-67626476D02*
X99512380Y-67769333D01*
X99512380Y-68007428D01*
X99464761Y-68102666D01*
X99417142Y-68150285D01*
X99321904Y-68197904D01*
X99226666Y-68197904D01*
X99131428Y-68150285D01*
X99083809Y-68102666D01*
X99036190Y-68007428D01*
X98988571Y-67816952D01*
X98940952Y-67721714D01*
X98893333Y-67674095D01*
X98798095Y-67626476D01*
X98702857Y-67626476D01*
X98607619Y-67674095D01*
X98560000Y-67721714D01*
X98512380Y-67816952D01*
X98512380Y-68055047D01*
X98560000Y-68197904D01*
X98512380Y-68531238D02*
X99512380Y-68769333D01*
X98798095Y-68959809D01*
X99512380Y-69150285D01*
X98512380Y-69388380D01*
X99512380Y-70293142D02*
X99512380Y-69721714D01*
X99512380Y-70007428D02*
X98512380Y-70007428D01*
X98655238Y-69912190D01*
X98750476Y-69816952D01*
X98798095Y-69721714D01*
X98512380Y-70912190D02*
X98512380Y-71007428D01*
X98560000Y-71102666D01*
X98607619Y-71150285D01*
X98702857Y-71197904D01*
X98893333Y-71245523D01*
X99131428Y-71245523D01*
X99321904Y-71197904D01*
X99417142Y-71150285D01*
X99464761Y-71102666D01*
X99512380Y-71007428D01*
X99512380Y-70912190D01*
X99464761Y-70816952D01*
X99417142Y-70769333D01*
X99321904Y-70721714D01*
X99131428Y-70674095D01*
X98893333Y-70674095D01*
X98702857Y-70721714D01*
X98607619Y-70769333D01*
X98560000Y-70816952D01*
X98512380Y-70912190D01*
X99004380Y-96972619D02*
X98528190Y-96639285D01*
X99004380Y-96401190D02*
X98004380Y-96401190D01*
X98004380Y-96782142D01*
X98052000Y-96877380D01*
X98099619Y-96925000D01*
X98194857Y-96972619D01*
X98337714Y-96972619D01*
X98432952Y-96925000D01*
X98480571Y-96877380D01*
X98528190Y-96782142D01*
X98528190Y-96401190D01*
X98480571Y-97401190D02*
X98480571Y-97734523D01*
X99004380Y-97877380D02*
X99004380Y-97401190D01*
X98004380Y-97401190D01*
X98004380Y-97877380D01*
X98956761Y-98258333D02*
X99004380Y-98401190D01*
X99004380Y-98639285D01*
X98956761Y-98734523D01*
X98909142Y-98782142D01*
X98813904Y-98829761D01*
X98718666Y-98829761D01*
X98623428Y-98782142D01*
X98575809Y-98734523D01*
X98528190Y-98639285D01*
X98480571Y-98448809D01*
X98432952Y-98353571D01*
X98385333Y-98305952D01*
X98290095Y-98258333D01*
X98194857Y-98258333D01*
X98099619Y-98305952D01*
X98052000Y-98353571D01*
X98004380Y-98448809D01*
X98004380Y-98686904D01*
X98052000Y-98829761D01*
X98480571Y-99258333D02*
X98480571Y-99591666D01*
X99004380Y-99734523D02*
X99004380Y-99258333D01*
X98004380Y-99258333D01*
X98004380Y-99734523D01*
X98004380Y-100020238D02*
X98004380Y-100591666D01*
X99004380Y-100305952D02*
X98004380Y-100305952D01*
X94313333Y-81367380D02*
X94313333Y-82081666D01*
X94360952Y-82224523D01*
X94456190Y-82319761D01*
X94599047Y-82367380D01*
X94694285Y-82367380D01*
X93932380Y-81367380D02*
X93313333Y-81367380D01*
X93646666Y-81748333D01*
X93503809Y-81748333D01*
X93408571Y-81795952D01*
X93360952Y-81843571D01*
X93313333Y-81938809D01*
X93313333Y-82176904D01*
X93360952Y-82272142D01*
X93408571Y-82319761D01*
X93503809Y-82367380D01*
X93789523Y-82367380D01*
X93884761Y-82319761D01*
X93932380Y-82272142D01*
X95631047Y-75112571D02*
X96392952Y-75112571D01*
X93599047Y-75112571D02*
X94360952Y-75112571D01*
X93980000Y-74731619D02*
X93980000Y-75493523D01*
X91694047Y-75112571D02*
X92455952Y-75112571D01*
D11*
X163950000Y-83700000D02*
X163950000Y-82700000D01*
X163950000Y-68700000D02*
X165450000Y-68700000D01*
X178950000Y-83700000D02*
X177450000Y-83700000D01*
X178950000Y-68700000D02*
X178950000Y-70200000D01*
D10*
X166370000Y-82990000D02*
X172870812Y-82990000D01*
X177800000Y-80137000D02*
X177800000Y-81280000D01*
D11*
X163950000Y-83700000D02*
X165450000Y-83700000D01*
X178950000Y-83700000D02*
X178950000Y-82200000D01*
D10*
X177800000Y-77030000D02*
X177165000Y-77030000D01*
X166370000Y-82677000D02*
X166370000Y-82990000D01*
D11*
X163950000Y-68700000D02*
X163950000Y-70200000D01*
X178950000Y-68700000D02*
X177450000Y-68700000D01*
D10*
X177800000Y-77030000D02*
X177800000Y-77343000D01*
X175895000Y-77030000D02*
X173863000Y-77030000D01*
X177800000Y-81280000D02*
X175650000Y-81280000D01*
X169250000Y-78740000D02*
X171450000Y-78740000D01*
X173050002Y-82600001D02*
G75*
G03*
X172870812Y-82990000I2346498J-1314299D01*
G01*
X171450000Y-78739999D02*
G75*
G03*
X173863000Y-77030000I7836J2546448D01*
G01*
X120650000Y-77030000D02*
X120015000Y-77030000D01*
D11*
X121800000Y-83700000D02*
X121800000Y-82200000D01*
D10*
X120650000Y-77030000D02*
X120650000Y-77343000D01*
X120650000Y-81280000D02*
X118500000Y-81280000D01*
D11*
X106800000Y-68700000D02*
X106800000Y-70200000D01*
D10*
X109220000Y-82677000D02*
X109220000Y-82990000D01*
X120650000Y-80137000D02*
X120650000Y-81280000D01*
D11*
X106800000Y-68700000D02*
X108300000Y-68700000D01*
D10*
X118745000Y-77030000D02*
X116713000Y-77030000D01*
D11*
X121800000Y-68700000D02*
X121800000Y-70200000D01*
X121800000Y-68700000D02*
X120300000Y-68700000D01*
X121800000Y-83700000D02*
X120300000Y-83700000D01*
D10*
X112100000Y-78740000D02*
X114300000Y-78740000D01*
D11*
X106800000Y-83700000D02*
X108300000Y-83700000D01*
D10*
X109220000Y-82990000D02*
X115720812Y-82990000D01*
D11*
X106800000Y-83700000D02*
X106800000Y-82700000D01*
D10*
X114300000Y-78739999D02*
G75*
G03*
X116713000Y-77030000I7836J2546448D01*
G01*
X115900002Y-82600001D02*
G75*
G03*
X115720812Y-82990000I2346498J-1314299D01*
G01*
D11*
X163950000Y-102750000D02*
X165450000Y-102750000D01*
D10*
X166370000Y-102040000D02*
X172870812Y-102040000D01*
D11*
X163950000Y-87750000D02*
X163950000Y-89250000D01*
D10*
X166370000Y-101727000D02*
X166370000Y-102040000D01*
X169250000Y-97790000D02*
X171450000Y-97790000D01*
X177800000Y-99187000D02*
X177800000Y-100330000D01*
X177800000Y-96080000D02*
X177165000Y-96080000D01*
X177800000Y-96080000D02*
X177800000Y-96393000D01*
X177800000Y-100330000D02*
X175650000Y-100330000D01*
D11*
X178950000Y-87750000D02*
X178950000Y-89250000D01*
D10*
X175895000Y-96080000D02*
X173863000Y-96080000D01*
D11*
X163950000Y-102750000D02*
X163950000Y-101750000D01*
X163950000Y-87750000D02*
X165450000Y-87750000D01*
X178950000Y-87750000D02*
X177450000Y-87750000D01*
X178950000Y-102750000D02*
X177450000Y-102750000D01*
X178950000Y-102750000D02*
X178950000Y-101250000D01*
D10*
X173050002Y-101650001D02*
G75*
G03*
X172870812Y-102040000I2346498J-1314299D01*
G01*
X171450000Y-97789999D02*
G75*
G03*
X173863000Y-96080000I7836J2546448D01*
G01*
D11*
X125850000Y-83700000D02*
X127350000Y-83700000D01*
D10*
X137795000Y-77030000D02*
X135763000Y-77030000D01*
X139700000Y-77030000D02*
X139065000Y-77030000D01*
D11*
X125850000Y-83700000D02*
X125850000Y-82700000D01*
D10*
X131150000Y-78740000D02*
X133350000Y-78740000D01*
D11*
X140850000Y-68700000D02*
X140850000Y-70200000D01*
X140850000Y-68700000D02*
X139350000Y-68700000D01*
X125850000Y-68700000D02*
X127350000Y-68700000D01*
X125850000Y-68700000D02*
X125850000Y-70200000D01*
D10*
X139700000Y-77030000D02*
X139700000Y-77343000D01*
X139700000Y-80137000D02*
X139700000Y-81280000D01*
X128270000Y-82677000D02*
X128270000Y-82990000D01*
X128270000Y-82990000D02*
X134770812Y-82990000D01*
D11*
X140850000Y-83700000D02*
X139350000Y-83700000D01*
D10*
X139700000Y-81280000D02*
X137550000Y-81280000D01*
D11*
X140850000Y-83700000D02*
X140850000Y-82200000D01*
D10*
X134950002Y-82600001D02*
G75*
G03*
X134770812Y-82990000I2346498J-1314299D01*
G01*
X133350000Y-78739999D02*
G75*
G03*
X135763000Y-77030000I7836J2546448D01*
G01*
D11*
X125850000Y-102750000D02*
X127350000Y-102750000D01*
D10*
X137795000Y-96080000D02*
X135763000Y-96080000D01*
X139700000Y-99187000D02*
X139700000Y-100330000D01*
D11*
X125850000Y-87750000D02*
X125850000Y-89250000D01*
D10*
X131150000Y-97790000D02*
X133350000Y-97790000D01*
D11*
X140850000Y-102750000D02*
X139350000Y-102750000D01*
X125850000Y-102750000D02*
X125850000Y-101750000D01*
D10*
X139700000Y-96080000D02*
X139065000Y-96080000D01*
X139700000Y-96080000D02*
X139700000Y-96393000D01*
D11*
X140850000Y-87750000D02*
X139350000Y-87750000D01*
D10*
X128270000Y-101727000D02*
X128270000Y-102040000D01*
D11*
X140850000Y-102750000D02*
X140850000Y-101250000D01*
X140850000Y-87750000D02*
X140850000Y-89250000D01*
X125850000Y-87750000D02*
X127350000Y-87750000D01*
D10*
X139700000Y-100330000D02*
X137550000Y-100330000D01*
X128270000Y-102040000D02*
X134770812Y-102040000D01*
X134950002Y-101650001D02*
G75*
G03*
X134770812Y-102040000I2346498J-1314299D01*
G01*
X133350000Y-97789999D02*
G75*
G03*
X135763000Y-96080000I7836J2546448D01*
G01*
D11*
X144900000Y-87750000D02*
X144900000Y-89250000D01*
X144900000Y-102750000D02*
X144900000Y-101750000D01*
X159900000Y-87750000D02*
X159900000Y-89250000D01*
D10*
X158750000Y-96080000D02*
X158115000Y-96080000D01*
X158750000Y-96080000D02*
X158750000Y-96393000D01*
X147320000Y-102040000D02*
X153820812Y-102040000D01*
D11*
X159900000Y-102750000D02*
X159900000Y-101250000D01*
X144900000Y-102750000D02*
X146400000Y-102750000D01*
D10*
X156845000Y-96080000D02*
X154813000Y-96080000D01*
X147320000Y-101727000D02*
X147320000Y-102040000D01*
D11*
X159900000Y-102750000D02*
X158400000Y-102750000D01*
D10*
X150200000Y-97790000D02*
X152400000Y-97790000D01*
X158750000Y-100330000D02*
X156600000Y-100330000D01*
X158750000Y-99187000D02*
X158750000Y-100330000D01*
D11*
X159900000Y-87750000D02*
X158400000Y-87750000D01*
X144900000Y-87750000D02*
X146400000Y-87750000D01*
D10*
X154000002Y-101650001D02*
G75*
G03*
X153820812Y-102040000I2346498J-1314299D01*
G01*
X152400000Y-97789999D02*
G75*
G03*
X154813000Y-96080000I7836J2546448D01*
G01*
D11*
X144900000Y-68700000D02*
X146400000Y-68700000D01*
D10*
X158750000Y-77030000D02*
X158115000Y-77030000D01*
D11*
X144900000Y-83700000D02*
X146400000Y-83700000D01*
X144900000Y-83700000D02*
X144900000Y-82700000D01*
X159900000Y-83700000D02*
X159900000Y-82200000D01*
D10*
X147320000Y-82990000D02*
X153820812Y-82990000D01*
X156845000Y-77030000D02*
X154813000Y-77030000D01*
D11*
X159900000Y-68700000D02*
X158400000Y-68700000D01*
X144900000Y-68700000D02*
X144900000Y-70200000D01*
D10*
X147320000Y-82677000D02*
X147320000Y-82990000D01*
X158750000Y-81280000D02*
X156600000Y-81280000D01*
X158750000Y-77030000D02*
X158750000Y-77343000D01*
X150200000Y-78740000D02*
X152400000Y-78740000D01*
D11*
X159900000Y-68700000D02*
X159900000Y-70200000D01*
X159900000Y-83700000D02*
X158400000Y-83700000D01*
D10*
X158750000Y-80137000D02*
X158750000Y-81280000D01*
X154000002Y-82600001D02*
G75*
G03*
X153820812Y-82990000I2346498J-1314299D01*
G01*
X152400000Y-78739999D02*
G75*
G03*
X154813000Y-77030000I7836J2546448D01*
G01*
X120650000Y-100330000D02*
X118500000Y-100330000D01*
X118745000Y-96080000D02*
X116713000Y-96080000D01*
D11*
X106800000Y-87750000D02*
X108300000Y-87750000D01*
D10*
X120650000Y-99187000D02*
X120650000Y-100330000D01*
D11*
X121800000Y-87750000D02*
X120300000Y-87750000D01*
X121800000Y-102750000D02*
X120300000Y-102750000D01*
D10*
X120650000Y-96080000D02*
X120015000Y-96080000D01*
D11*
X106800000Y-102750000D02*
X108300000Y-102750000D01*
D10*
X112100000Y-97790000D02*
X114300000Y-97790000D01*
X120650000Y-96080000D02*
X120650000Y-96393000D01*
X109220000Y-102040000D02*
X115720812Y-102040000D01*
D11*
X106800000Y-87750000D02*
X106800000Y-89250000D01*
X106800000Y-102750000D02*
X106800000Y-101750000D01*
D10*
X109220000Y-101727000D02*
X109220000Y-102040000D01*
D11*
X121800000Y-87750000D02*
X121800000Y-89250000D01*
X121800000Y-102750000D02*
X121800000Y-101250000D01*
D10*
X114300000Y-97789999D02*
G75*
G03*
X116713000Y-96080000I7836J2546448D01*
G01*
X115900002Y-101650001D02*
G75*
G03*
X115720812Y-102040000I2346498J-1314299D01*
G01*
D12*
X92580000Y-66416000D02*
X92780000Y-66206000D01*
X92780000Y-66206000D02*
X93680000Y-66206000D01*
X93880000Y-66416000D02*
X93880000Y-67706000D01*
X95380000Y-70556000D02*
X95580000Y-70556000D01*
X92580000Y-67706000D02*
X92580000Y-66416000D01*
X92380000Y-70556000D02*
X94080000Y-70556000D01*
X91130000Y-67706000D02*
X96830000Y-67706000D01*
X90530000Y-69506000D02*
X90530000Y-68716000D01*
X97430000Y-68716000D02*
X97430000Y-69506000D01*
X93880000Y-66416000D02*
X93680000Y-66206000D01*
X90750000Y-101655000D02*
X90780000Y-101655000D01*
X95280000Y-101655000D02*
X92680000Y-101655000D01*
X95280000Y-95195000D02*
X92680000Y-95195000D01*
X97210000Y-95195000D02*
X97180000Y-95195000D01*
X90750000Y-101655000D02*
X90750000Y-95195000D01*
X90750000Y-95195000D02*
X90780000Y-95195000D01*
X97180000Y-101655000D02*
X97210000Y-101655000D01*
X97210000Y-101655000D02*
X97210000Y-95195000D01*
X94880000Y-79355000D02*
X94880000Y-79855000D01*
X94980000Y-79855000D02*
X94980000Y-79355000D01*
X96580000Y-75545000D02*
X96580000Y-75745000D01*
X98040000Y-78355000D02*
X97430000Y-78355000D01*
X95080000Y-79855000D02*
X95080000Y-79355000D01*
X89920000Y-75745000D02*
X98040000Y-75745000D01*
X95480000Y-76355000D02*
X97430000Y-76355000D01*
X89920000Y-78355000D02*
X90530000Y-78355000D01*
X96280000Y-75545000D02*
X96580000Y-75545000D01*
X98040000Y-77055000D02*
X97430000Y-77055000D01*
X92980000Y-79855000D02*
X92980000Y-79355000D01*
X98040000Y-80465000D02*
X89920000Y-80465000D01*
X93080000Y-79355000D02*
X92880000Y-79355000D01*
X95080000Y-79355000D02*
X94880000Y-79355000D01*
X90530000Y-79855000D02*
X90530000Y-76355000D01*
X97430000Y-79855000D02*
X90530000Y-79855000D01*
X97430000Y-76355000D02*
X97430000Y-79855000D01*
X98040000Y-75745000D02*
X98040000Y-80465000D01*
X92880000Y-79355000D02*
X92880000Y-79855000D01*
X97090000Y-75445000D02*
X98340000Y-75445000D01*
X98340000Y-75445000D02*
X98340000Y-76695000D01*
X89920000Y-77055000D02*
X90530000Y-77055000D01*
X95480000Y-75745000D02*
X95480000Y-76355000D01*
X89920000Y-80465000D02*
X89920000Y-75745000D01*
X93080000Y-79855000D02*
X93080000Y-79355000D01*
X92480000Y-76355000D02*
X92480000Y-75745000D01*
X96280000Y-75645000D02*
X96580000Y-75645000D01*
X90530000Y-76355000D02*
X92480000Y-76355000D01*
X96280000Y-75745000D02*
X96280000Y-75545000D01*
%LPC*%
D13*
X176530000Y-76200000D03*
D14*
X167640000Y-78740000D03*
D13*
X166370000Y-76200000D03*
D14*
X168910000Y-81280000D03*
X175260000Y-78740000D03*
X173990000Y-81280000D03*
D15*
X171450000Y-76200000D03*
D16*
X167640000Y-73660000D03*
D17*
X165160000Y-81280000D03*
D16*
X168910000Y-71120000D03*
X175260000Y-73660000D03*
X173990000Y-71120000D03*
D17*
X179010000Y-78740000D03*
D14*
X116840000Y-81280000D03*
D13*
X109220000Y-76200000D03*
D14*
X118110000Y-78740000D03*
D15*
X114300000Y-76200000D03*
D13*
X119380000Y-76200000D03*
D14*
X111760000Y-81280000D03*
X110490000Y-78740000D03*
D16*
X111760000Y-71120000D03*
X110490000Y-73660000D03*
D17*
X108010000Y-81280000D03*
D16*
X118110000Y-73660000D03*
D17*
X121860000Y-78740000D03*
D16*
X116840000Y-71120000D03*
D13*
X176530000Y-95250000D03*
D14*
X168910000Y-100330000D03*
X175260000Y-97790000D03*
X167640000Y-97790000D03*
X173990000Y-100330000D03*
D15*
X171450000Y-95250000D03*
D13*
X166370000Y-95250000D03*
D16*
X167640000Y-92710000D03*
X168910000Y-90170000D03*
D17*
X165160000Y-100330000D03*
D16*
X173990000Y-90170000D03*
X175260000Y-92710000D03*
D17*
X179010000Y-97790000D03*
D18*
X86360000Y-70485000D03*
D19*
X86360000Y-73025000D03*
X86360000Y-75565000D03*
X86360000Y-78105000D03*
X86360000Y-80645000D03*
X86360000Y-83185000D03*
X86360000Y-85725000D03*
X86360000Y-88265000D03*
X86360000Y-90805000D03*
X86360000Y-93345000D03*
X86360000Y-95885000D03*
X86360000Y-98425000D03*
X86360000Y-100965000D03*
D20*
X93980000Y-91440000D03*
D14*
X135890000Y-81280000D03*
D15*
X133350000Y-76200000D03*
D14*
X137160000Y-78740000D03*
X129540000Y-78740000D03*
D13*
X138430000Y-76200000D03*
X128270000Y-76200000D03*
D14*
X130810000Y-81280000D03*
D17*
X127060000Y-81280000D03*
D16*
X129540000Y-73660000D03*
X130810000Y-71120000D03*
X135890000Y-71120000D03*
X137160000Y-73660000D03*
D17*
X140910000Y-78740000D03*
D18*
X101600000Y-70485000D03*
D19*
X101600000Y-73025000D03*
X101600000Y-75565000D03*
X101600000Y-78105000D03*
X101600000Y-80645000D03*
X101600000Y-83185000D03*
X101600000Y-85725000D03*
X101600000Y-88265000D03*
X101600000Y-90805000D03*
X101600000Y-93345000D03*
X101600000Y-95885000D03*
X101600000Y-98425000D03*
X101600000Y-100965000D03*
D20*
X161925000Y-85725000D03*
D15*
X133350000Y-95250000D03*
D14*
X137160000Y-97790000D03*
X130810000Y-100330000D03*
X129540000Y-97790000D03*
D13*
X138430000Y-95250000D03*
X128270000Y-95250000D03*
D14*
X135890000Y-100330000D03*
D16*
X130810000Y-90170000D03*
X129540000Y-92710000D03*
D17*
X127060000Y-100330000D03*
X140910000Y-97790000D03*
D16*
X135890000Y-90170000D03*
X137160000Y-92710000D03*
D20*
X161925000Y-103505000D03*
X161925000Y-67945000D03*
D14*
X154940000Y-100330000D03*
X149860000Y-100330000D03*
X156210000Y-97790000D03*
D13*
X157480000Y-95250000D03*
D14*
X148590000Y-97790000D03*
D15*
X152400000Y-95250000D03*
D13*
X147320000Y-95250000D03*
D17*
X146110000Y-100330000D03*
D16*
X149860000Y-90170000D03*
X148590000Y-92710000D03*
D17*
X159960000Y-97790000D03*
D16*
X154940000Y-90170000D03*
X156210000Y-92710000D03*
D13*
X157480000Y-76200000D03*
D14*
X156210000Y-78740000D03*
X149860000Y-81280000D03*
D13*
X147320000Y-76200000D03*
D14*
X148590000Y-78740000D03*
X154940000Y-81280000D03*
D15*
X152400000Y-76200000D03*
D16*
X149860000Y-71120000D03*
X148590000Y-73660000D03*
D17*
X146110000Y-81280000D03*
X159960000Y-78740000D03*
D16*
X156210000Y-73660000D03*
X154940000Y-71120000D03*
D20*
X123825000Y-85725000D03*
D14*
X111760000Y-100330000D03*
D13*
X119380000Y-95250000D03*
D15*
X114300000Y-95250000D03*
D13*
X109220000Y-95250000D03*
D14*
X116840000Y-100330000D03*
X110490000Y-97790000D03*
X118110000Y-97790000D03*
D16*
X111760000Y-90170000D03*
D17*
X108010000Y-100330000D03*
D16*
X110490000Y-92710000D03*
X118110000Y-92710000D03*
D17*
X121860000Y-97790000D03*
D16*
X116840000Y-90170000D03*
D20*
X123825000Y-67945000D03*
D21*
X95480000Y-69106000D03*
X92480000Y-69106000D03*
D22*
X97630000Y-68006000D03*
X90330000Y-68006000D03*
X90330000Y-70216000D03*
D21*
X92480000Y-69106000D03*
X95480000Y-69106000D03*
D22*
X97630000Y-70216000D03*
D23*
X91730000Y-70866000D03*
X94730000Y-70866000D03*
X96230000Y-70866000D03*
D24*
X96230000Y-94450000D03*
X96230000Y-102400000D03*
X91730000Y-102400000D03*
X91730000Y-94450000D03*
D25*
X95980000Y-77555000D03*
D26*
X93980000Y-77555000D03*
D25*
X91980000Y-77555000D03*
M02*
