M48
; DRILL file {KiCad (6.0.7)} date Sat Nov 12 22:44:35 2022
; FORMAT={-:-/ absolute / metric / decimal}
; #@! TF.CreationDate,2022-11-12T22:44:35+08:00
; #@! TF.GenerationSoftware,Kicad,Pcbnew,(6.0.7)
; #@! TF.FileFunction,NonPlated,1,2,NPTH
FMAT,2
METRIC
; #@! TA.AperFunction,NonPlated,NPTH,ComponentDrill
T1C0.900
; #@! TA.AperFunction,NonPlated,NPTH,ComponentDrill
T2C1.700
; #@! TA.AperFunction,NonPlated,NPTH,ComponentDrill
T3C2.200
; #@! TA.AperFunction,NonPlated,NPTH,ComponentDrill
T4C3.000
; #@! TA.AperFunction,NonPlated,NPTH,ComponentDrill
T5C4.000
%
G90
G05
T1
X92.48Y-69.106
X92.48Y-69.106
X95.48Y-69.106
X95.48Y-69.106
T2
X109.22Y-76.2
X109.22Y-95.25
X119.38Y-76.2
X119.38Y-95.25
X128.27Y-76.2
X128.27Y-95.25
X138.43Y-76.2
X138.43Y-95.25
X147.32Y-76.2
X147.32Y-95.25
X157.48Y-76.2
X157.48Y-95.25
X166.37Y-76.2
X166.37Y-95.25
X176.53Y-76.2
X176.53Y-95.25
T3
X93.98Y-91.44
X123.825Y-67.945
X123.825Y-85.725
X161.925Y-67.945
X161.925Y-85.725
X161.925Y-103.505
T4
X110.49Y-78.74
X110.49Y-97.79
X111.76Y-81.28
X111.76Y-100.33
X116.84Y-81.28
X116.84Y-100.33
X118.11Y-78.74
X118.11Y-97.79
X129.54Y-78.74
X129.54Y-97.79
X130.81Y-81.28
X130.81Y-100.33
X135.89Y-81.28
X135.89Y-100.33
X137.16Y-78.74
X137.16Y-97.79
X148.59Y-78.74
X148.59Y-97.79
X149.86Y-81.28
X149.86Y-100.33
X154.94Y-81.28
X154.94Y-100.33
X156.21Y-78.74
X156.21Y-97.79
X167.64Y-78.74
X167.64Y-97.79
X168.91Y-81.28
X168.91Y-100.33
X173.99Y-81.28
X173.99Y-100.33
X175.26Y-78.74
X175.26Y-97.79
T5
X114.3Y-76.2
X114.3Y-95.25
X133.35Y-76.2
X133.35Y-95.25
X152.4Y-76.2
X152.4Y-95.25
X171.45Y-76.2
X171.45Y-95.25
T0
M30
