M48
; DRILL file {KiCad (6.0.7)} date Sat Nov 12 22:44:35 2022
; FORMAT={-:-/ absolute / metric / decimal}
; #@! TF.CreationDate,2022-11-12T22:44:35+08:00
; #@! TF.GenerationSoftware,Kicad,Pcbnew,(6.0.7)
; #@! TF.FileFunction,Plated,1,2,PTH
FMAT,2
METRIC
; #@! TA.AperFunction,Plated,PTH,ViaDrill
T1C0.400
; #@! TA.AperFunction,Plated,PTH,ComponentDrill
T2C0.750
; #@! TA.AperFunction,Plated,PTH,ComponentDrill
T3C1.000
; #@! TA.AperFunction,Plated,PTH,ComponentDrill
T4C1.500
%
G90
G05
T1
X90.17Y-102.362
X91.73Y-96.52
X94.742Y-102.362
X96.23Y-96.52
X114.3Y-85.725
X142.24Y-103.505
X171.45Y-85.725
T2
X91.98Y-77.555
X93.98Y-77.555
X95.98Y-77.555
T3
X86.36Y-70.485
X86.36Y-73.025
X86.36Y-75.565
X86.36Y-78.105
X86.36Y-80.645
X86.36Y-83.185
X86.36Y-85.725
X86.36Y-88.265
X86.36Y-90.805
X86.36Y-93.345
X86.36Y-95.885
X86.36Y-98.425
X86.36Y-100.965
X101.6Y-70.485
X101.6Y-73.025
X101.6Y-75.565
X101.6Y-78.105
X101.6Y-80.645
X101.6Y-83.185
X101.6Y-85.725
X101.6Y-88.265
X101.6Y-90.805
X101.6Y-93.345
X101.6Y-95.885
X101.6Y-98.425
X101.6Y-100.965
T4
X110.49Y-73.66
X110.49Y-92.71
X111.76Y-71.12
X111.76Y-90.17
X116.84Y-71.12
X116.84Y-90.17
X118.11Y-73.66
X118.11Y-92.71
X129.54Y-73.66
X129.54Y-92.71
X130.81Y-71.12
X130.81Y-90.17
X135.89Y-71.12
X135.89Y-90.17
X137.16Y-73.66
X137.16Y-92.71
X148.59Y-73.66
X148.59Y-92.71
X149.86Y-71.12
X149.86Y-90.17
X154.94Y-71.12
X154.94Y-90.17
X156.21Y-73.66
X156.21Y-92.71
X167.64Y-73.66
X167.64Y-92.71
X168.91Y-71.12
X168.91Y-90.17
X173.99Y-71.12
X173.99Y-90.17
X175.26Y-73.66
X175.26Y-92.71
T0
M30
